# xmcd
# Copyright (C) 1995-1998 Ti Kan
#
# Track frame offsets:
#       150
#       15112
#       26512
#       39550
#       61987
#       76537
#       97587
#       114437
#       128187
#       146087
#       155362
#       176762
#
# Disc length: 2510 seconds
#
# Revision: 0
# Processed by: cddbd v1.4b42PL1 Copyright (c) Steve Scherf et al.
# Submitted via: CD-Transfer v1.0
#
DISCID=8309cc0c
DTITLE=Starfish - In Love
DYEAR=1995
DGENRE=
TTITLE0=It's A Shame
TTITLE1=Bitches
TTITLE2=The Left Turn
TTITLE3=Weak Ends. Shattered Days
TTITLE4=Rain Comes Falling Down
TTITLE5=Blue Mail Box
TTITLE6=Walk. Don't Walk
TTITLE7=It Gets Me Down
TTITLE8=Fatal Threestep
TTITLE9=As The Wind Blows
TTITLE10=Total Recall
TTITLE11=The Most Important Part
EXTD=
EXTT0=
EXTT1=
EXTT2=
EXTT3=
EXTT4=
EXTT5=
EXTT6=
EXTT7=
EXTT8=
EXTT9=
EXTT10=
EXTT11=
PLAYORDER=
